# xmcd
#
# Track frame offsets:
#	151
#	28390
#	56573
#	74816
#	99885
#	119772
#	149161
#	158565
#	186344
#	216002
#
# Disc length: 3277 seconds
#
# Revision: 0
# Processed by: cddbd v1.4PL0 Copyright (c) Steve Scherf et al.
# Submitted via: dBpowerAMP V4.0
#
DISCID=a00ccb0a
DTITLE=The Bible Singer - Gospel Songs
DYEAR=1999
DGENRE=Gospel
TTITLE0=Oh Happy Day
TTITLE1=Go Down Moses
TTITLE2=When The Saints Go Marchin' in
TTITLE3=The Bible Singer
TTITLE4=Sweet Sweet Spirit
TTITLE5=How Great Thou Art (O Store Gud)
TTITLE6=The Solid Rock
TTITLE7=I Want Jesus To Walk With Me
TTITLE8=Sometimes I Feel Like A Motherless Child
TTITLE9=Amazing Grace
EXTD=
EXTT0=
EXTT1=
EXTT2=
EXTT3=
EXTT4=
EXTT5=
EXTT6=
EXTT7=
EXTT8=
EXTT9=
PLAYORDER=
